<?xml version="1.0" encoding="UTF-8"?>
<svg id="Layer_2" data-name="Layer 2" xmlns="http://www.w3.org/2000/svg" version="1.1" viewBox="0 0 560.5 560.5">
  <defs>
    <style>
      .cls-1 {
        fill: #181819;
      }

      .cls-1, .cls-2 {
        stroke-width: 0px;
      }

      .cls-2 {
        fill: #fff;
      }
    </style>
  </defs>
  <circle class="cls-2" cx="280.2" cy="280.2" r="245.8"/>
  <g id="Layer_1-2" data-name="Layer 1-2">
    <g>
      <g>
        <path class="cls-1" d="M256.4,191.5l20.6-14.1,67.4,104.1c15.1,23.3,16.5,51.9,3.9,76.6-12.6,24.7-36.7,40.3-64.4,41.7-1.4,0-2.7.1-4.1.1-26.1,0-49.9-12.9-64.2-35-15.1-23.3-16.5-51.9-3.9-76.6l22.2,11.3c-8.5,16.7-7.5,36,2.6,51.8,10.2,15.7,27.4,24.5,46.1,23.6,18.7-1,35-11.5,43.5-28.2,8.5-16.7,7.5-36-2.6-51.7l-60.5-93.4-6.6-10.2h0Z"/>
        <path class="cls-1" d="M304,313.8l-20.5,14.1-67.4-104.1c-15.1-23.3-16.5-51.9-3.9-76.6,12.6-24.7,36.7-40.3,64.4-41.7,27.7-1.4,53.2,11.6,68.3,34.9,15.1,23.3,16.5,51.9,3.9,76.6l-22.2-11.3c8.5-16.7,7.5-36-2.6-51.7-10.2-15.7-27.4-24.5-46.1-23.6-18.7,1-35,11.5-43.5,28.2-8.5,16.7-7.5,36,2.6,51.7l60.5,93.4,6.7,10h-.2c0,.1,0,.1,0,.1Z"/>
      </g>
      <path class="cls-1" d="M279,455.1c-71.6-.7-128.7-60.1-128.7-131.7v-117.5h40.1v24.9h-15.2v92.6c0,57.7,45.8,105.8,103.5,106.7,58.7.9,106.7-46.6,106.7-105.1v-94.2h-15.2v-24.9h40.1v119.1c0,72.1-59,130.7-131.3,130h0Z"/>
    </g>
  </g>
</svg>